<svg id="visual" viewBox="0 0 960 540" width="960" height="540" xmlns="http://www.w3.org/2000/svg" xmlns:xlink="http://www.w3.org/1999/xlink" version="1.1"><g stroke-width="1" stroke-linejoin="bevel"><path d="M501 268L507 258L503 262Z" fill="#003779" stroke="#003779"></path><path d="M526 313L533 240L507 258Z" fill="#001954" stroke="#001954"></path><path d="M507 258L477 249L503 262Z" fill="#0168b3" stroke="#0168b3"></path><path d="M503 262L477 249L501 268Z" fill="#000000" stroke="#000000"></path><path d="M487 229L477 249L507 258Z" fill="#000000" stroke="#000000"></path><path d="M474 341L526 313L501 268Z" fill="#000000" stroke="#000000"></path><path d="M501 268L526 313L507 258Z" fill="#0058a0" stroke="#0058a0"></path><path d="M498 217L487 229L507 258Z" fill="#0279c6" stroke="#0279c6"></path><path d="M533 240L498 217L507 258Z" fill="#000000" stroke="#000000"></path><path d="M526 313L578 286L533 240Z" fill="#0279c6" stroke="#0279c6"></path><path d="M433 233L453 259L477 249Z" fill="#0058a0" stroke="#0058a0"></path><path d="M477 249L453 259L501 268Z" fill="#0279c6" stroke="#0279c6"></path><path d="M466 208L477 249L487 229Z" fill="#000000" stroke="#000000"></path><path d="M578 286L563 225L533 240Z" fill="#018ad9" stroke="#018ad9"></path><path d="M533 240L506 186L498 217Z" fill="#0058a0" stroke="#0058a0"></path><path d="M553 314L578 286L526 313Z" fill="#019cec" stroke="#019cec"></path><path d="M506 186L482 211L498 217Z" fill="#019cec" stroke="#019cec"></path><path d="M498 217L482 211L487 229Z" fill="#0279c6" stroke="#0279c6"></path><path d="M506 186L466 208L482 211Z" fill="#0168b3" stroke="#0168b3"></path><path d="M482 211L466 208L487 229Z" fill="#00478c" stroke="#00478c"></path><path d="M453 259L474 341L501 268Z" fill="#0279c6" stroke="#0279c6"></path><path d="M526 313L522 375L553 314Z" fill="#0058a0" stroke="#0058a0"></path><path d="M563 225L506 186L533 240Z" fill="#019cec" stroke="#019cec"></path><path d="M466 208L433 233L477 249Z" fill="#001954" stroke="#001954"></path><path d="M425 321L464 359L474 341Z" fill="#00478c" stroke="#00478c"></path><path d="M553 314L610 296L578 286Z" fill="#0168b3" stroke="#0168b3"></path><path d="M578 286L612 206L563 225Z" fill="#000000" stroke="#000000"></path><path d="M624 346L610 296L553 314Z" fill="#00aeff" stroke="#00aeff"></path><path d="M612 206L570 183L563 225Z" fill="#0058a0" stroke="#0058a0"></path><path d="M563 225L570 183L506 186Z" fill="#019cec" stroke="#019cec"></path><path d="M425 321L474 341L453 259Z" fill="#00aeff" stroke="#00aeff"></path><path d="M474 341L522 375L526 313Z" fill="#003779" stroke="#003779"></path><path d="M395 295L425 321L453 259Z" fill="#0279c6" stroke="#0279c6"></path><path d="M509 386L522 375L474 341Z" fill="#0168b3" stroke="#0168b3"></path><path d="M466 208L421 200L433 233Z" fill="#002766" stroke="#002766"></path><path d="M433 233L395 295L453 259Z" fill="#019cec" stroke="#019cec"></path><path d="M483 144L421 200L466 208Z" fill="#000000" stroke="#000000"></path><path d="M610 296L612 206L578 286Z" fill="#0058a0" stroke="#0058a0"></path><path d="M464 359L509 386L474 341Z" fill="#00478c" stroke="#00478c"></path><path d="M612 206L580 167L570 183Z" fill="#019cec" stroke="#019cec"></path><path d="M570 183L563 154L506 186Z" fill="#0279c6" stroke="#0279c6"></path><path d="M506 186L483 144L466 208Z" fill="#000000" stroke="#000000"></path><path d="M360 242L395 295L433 233Z" fill="#002766" stroke="#002766"></path><path d="M425 321L435 402L464 359Z" fill="#000000" stroke="#000000"></path><path d="M580 167L563 154L570 183Z" fill="#0279c6" stroke="#0279c6"></path><path d="M496 139L483 144L506 186Z" fill="#0058a0" stroke="#0058a0"></path><path d="M523 138L496 139L506 186Z" fill="#0279c6" stroke="#0279c6"></path><path d="M563 154L523 138L506 186Z" fill="#00478c" stroke="#00478c"></path><path d="M623 397L608 364L522 375Z" fill="#0279c6" stroke="#0279c6"></path><path d="M522 375L608 364L553 314Z" fill="#018ad9" stroke="#018ad9"></path><path d="M608 364L624 346L553 314Z" fill="#0058a0" stroke="#0058a0"></path><path d="M610 296L668 221L612 206Z" fill="#019cec" stroke="#019cec"></path><path d="M624 346L643 316L610 296Z" fill="#019cec" stroke="#019cec"></path><path d="M374 169L389 206L421 200Z" fill="#0168b3" stroke="#0168b3"></path><path d="M421 200L389 206L433 233Z" fill="#00aeff" stroke="#00aeff"></path><path d="M338 271L383 330L395 295Z" fill="#00aeff" stroke="#00aeff"></path><path d="M395 295L383 330L425 321Z" fill="#001954" stroke="#001954"></path><path d="M464 359L435 402L509 386Z" fill="#018ad9" stroke="#018ad9"></path><path d="M674 153L614 152L612 206Z" fill="#0279c6" stroke="#0279c6"></path><path d="M612 206L614 152L580 167Z" fill="#00478c" stroke="#00478c"></path><path d="M580 167L593 121L563 154Z" fill="#0058a0" stroke="#0058a0"></path><path d="M563 154L523 106L523 138Z" fill="#00aeff" stroke="#00aeff"></path><path d="M383 330L435 402L425 321Z" fill="#00aeff" stroke="#00aeff"></path><path d="M389 206L360 242L433 233Z" fill="#0168b3" stroke="#0168b3"></path><path d="M643 316L668 221L610 296Z" fill="#003779" stroke="#003779"></path><path d="M593 121L523 106L563 154Z" fill="#001954" stroke="#001954"></path><path d="M523 138L523 106L496 139Z" fill="#003779" stroke="#003779"></path><path d="M496 139L431 99L483 144Z" fill="#0168b3" stroke="#0168b3"></path><path d="M483 144L403 149L421 200Z" fill="#0168b3" stroke="#0168b3"></path><path d="M399 139L403 149L431 99Z" fill="#0168b3" stroke="#0168b3"></path><path d="M389 206L341 220L360 242Z" fill="#00478c" stroke="#00478c"></path><path d="M634 134L593 121L614 152Z" fill="#0058a0" stroke="#0058a0"></path><path d="M614 152L593 121L580 167Z" fill="#0279c6" stroke="#0279c6"></path><path d="M608 364L623 397L624 346Z" fill="#0279c6" stroke="#0279c6"></path><path d="M624 346L664 368L643 316Z" fill="#001954" stroke="#001954"></path><path d="M756 240L726 210L668 221Z" fill="#0058a0" stroke="#0058a0"></path><path d="M522 448L623 397L522 375Z" fill="#003779" stroke="#003779"></path><path d="M522 448L522 375L509 386Z" fill="#00aeff" stroke="#00aeff"></path><path d="M336 260L345 261L360 242Z" fill="#003779" stroke="#003779"></path><path d="M360 242L345 261L395 295Z" fill="#000000" stroke="#000000"></path><path d="M403 149L374 169L421 200Z" fill="#00478c" stroke="#00478c"></path><path d="M431 99L403 149L483 144Z" fill="#000000" stroke="#000000"></path><path d="M403 149L399 139L374 169Z" fill="#018ad9" stroke="#018ad9"></path><path d="M336 260L338 271L345 261Z" fill="#0058a0" stroke="#0058a0"></path><path d="M345 261L338 271L395 295Z" fill="#0168b3" stroke="#0168b3"></path><path d="M372 414L424 441L435 402Z" fill="#002766" stroke="#002766"></path><path d="M399 139L370 167L374 169Z" fill="#001954" stroke="#001954"></path><path d="M374 169L341 220L389 206Z" fill="#0168b3" stroke="#0168b3"></path><path d="M341 220L336 260L360 242Z" fill="#0058a0" stroke="#0058a0"></path><path d="M435 402L522 448L509 386Z" fill="#001954" stroke="#001954"></path><path d="M623 397L664 368L624 346Z" fill="#018ad9" stroke="#018ad9"></path><path d="M370 167L341 220L374 169Z" fill="#0279c6" stroke="#0279c6"></path><path d="M674 153L634 134L614 152Z" fill="#001954" stroke="#001954"></path><path d="M567 77L532 83L523 106Z" fill="#0168b3" stroke="#0168b3"></path><path d="M523 106L431 99L496 139Z" fill="#001954" stroke="#001954"></path><path d="M567 77L523 106L593 121Z" fill="#00478c" stroke="#00478c"></path><path d="M532 83L431 99L523 106Z" fill="#00aeff" stroke="#00aeff"></path><path d="M399 139L308 132L370 167Z" fill="#000000" stroke="#000000"></path><path d="M670 446L676 369L664 368Z" fill="#0168b3" stroke="#0168b3"></path><path d="M664 368L676 369L643 316Z" fill="#003779" stroke="#003779"></path><path d="M372 414L435 402L383 330Z" fill="#018ad9" stroke="#018ad9"></path><path d="M435 402L424 441L522 448Z" fill="#0058a0" stroke="#0058a0"></path><path d="M668 221L674 153L612 206Z" fill="#003779" stroke="#003779"></path><path d="M625 73L567 77L593 121Z" fill="#001954" stroke="#001954"></path><path d="M726 210L674 153L668 221Z" fill="#0168b3" stroke="#0168b3"></path><path d="M625 73L593 121L634 134Z" fill="#00478c" stroke="#00478c"></path><path d="M429 0L397 92L431 99Z" fill="#00aeff" stroke="#00aeff"></path><path d="M447 481L525 468L522 448Z" fill="#0279c6" stroke="#0279c6"></path><path d="M607 454L632 432L623 397Z" fill="#019cec" stroke="#019cec"></path><path d="M623 397L632 432L664 368Z" fill="#0279c6" stroke="#0279c6"></path><path d="M607 454L623 397L522 448Z" fill="#000000" stroke="#000000"></path><path d="M249 363L372 414L383 330Z" fill="#00aeff" stroke="#00aeff"></path><path d="M674 153L670 137L634 134Z" fill="#0168b3" stroke="#0168b3"></path><path d="M525 468L607 454L522 448Z" fill="#00478c" stroke="#00478c"></path><path d="M607 454L633 440L632 432Z" fill="#0279c6" stroke="#0279c6"></path><path d="M709 393L704 370L708 395Z" fill="#000000" stroke="#000000"></path><path d="M487 4L431 99L532 83Z" fill="#018ad9" stroke="#018ad9"></path><path d="M431 99L397 92L399 139Z" fill="#018ad9" stroke="#018ad9"></path><path d="M370 167L301 204L341 220Z" fill="#002766" stroke="#002766"></path><path d="M704 370L676 369L708 395Z" fill="#018ad9" stroke="#018ad9"></path><path d="M676 369L704 370L643 316Z" fill="#0058a0" stroke="#0058a0"></path><path d="M756 240L668 221L643 316Z" fill="#018ad9" stroke="#018ad9"></path><path d="M674 153L704 132L670 137Z" fill="#000000" stroke="#000000"></path><path d="M406 465L447 481L424 441Z" fill="#0058a0" stroke="#0058a0"></path><path d="M424 441L447 481L522 448Z" fill="#0168b3" stroke="#0168b3"></path><path d="M298 151L301 204L370 167Z" fill="#000000" stroke="#000000"></path><path d="M341 220L301 204L336 260Z" fill="#0279c6" stroke="#0279c6"></path><path d="M336 260L291 269L338 271Z" fill="#00478c" stroke="#00478c"></path><path d="M338 271L265 309L383 330Z" fill="#0279c6" stroke="#0279c6"></path><path d="M301 204L291 269L336 260Z" fill="#000000" stroke="#000000"></path><path d="M381 458L406 465L424 441Z" fill="#018ad9" stroke="#018ad9"></path><path d="M635 73L625 73L634 134Z" fill="#0058a0" stroke="#0058a0"></path><path d="M635 73L634 134L670 137Z" fill="#003779" stroke="#003779"></path><path d="M711 100L635 73L670 137Z" fill="#001954" stroke="#001954"></path><path d="M381 458L406 473L406 465Z" fill="#0168b3" stroke="#0168b3"></path><path d="M406 465L406 473L447 481Z" fill="#0279c6" stroke="#0279c6"></path><path d="M708 395L676 369L670 446Z" fill="#002766" stroke="#002766"></path><path d="M748 359L756 240L643 316Z" fill="#002766" stroke="#002766"></path><path d="M335 453L381 458L372 414Z" fill="#00478c" stroke="#00478c"></path><path d="M372 414L381 458L424 441Z" fill="#002766" stroke="#002766"></path><path d="M764 199L733 195L726 210Z" fill="#019cec" stroke="#019cec"></path><path d="M726 210L733 195L674 153Z" fill="#0058a0" stroke="#0058a0"></path><path d="M670 446L664 368L632 432Z" fill="#002766" stroke="#002766"></path><path d="M665 464L670 446L633 440Z" fill="#003779" stroke="#003779"></path><path d="M633 440L670 446L632 432Z" fill="#0168b3" stroke="#0168b3"></path><path d="M525 468L571 495L607 454Z" fill="#002766" stroke="#002766"></path><path d="M521 540L571 495L525 468Z" fill="#00478c" stroke="#00478c"></path><path d="M712 134L704 132L674 153Z" fill="#0058a0" stroke="#0058a0"></path><path d="M665 464L633 440L607 454Z" fill="#002766" stroke="#002766"></path><path d="M607 42L567 77L625 73Z" fill="#003779" stroke="#003779"></path><path d="M607 42L545 32L567 77Z" fill="#003779" stroke="#003779"></path><path d="M567 77L545 32L532 83Z" fill="#002766" stroke="#002766"></path><path d="M733 195L712 134L674 153Z" fill="#000000" stroke="#000000"></path><path d="M704 132L711 100L670 137Z" fill="#0279c6" stroke="#0279c6"></path><path d="M748 359L643 316L704 370Z" fill="#00478c" stroke="#00478c"></path><path d="M766 98L711 100L712 134Z" fill="#000000" stroke="#000000"></path><path d="M636 0L607 42L638 0Z" fill="#00aeff" stroke="#00aeff"></path><path d="M635 73L607 42L625 73Z" fill="#00478c" stroke="#00478c"></path><path d="M308 132L298 151L370 167Z" fill="#001954" stroke="#001954"></path><path d="M301 204L245 223L291 269Z" fill="#00aeff" stroke="#00aeff"></path><path d="M682 492L665 464L623 540Z" fill="#0058a0" stroke="#0058a0"></path><path d="M670 446L708 423L708 395Z" fill="#019cec" stroke="#019cec"></path><path d="M397 92L308 132L399 139Z" fill="#002766" stroke="#002766"></path><path d="M719 455L708 423L670 446Z" fill="#00478c" stroke="#00478c"></path><path d="M708 395L708 423L709 393Z" fill="#019cec" stroke="#019cec"></path><path d="M709 393L748 359L704 370Z" fill="#00aeff" stroke="#00aeff"></path><path d="M258 128L282 181L298 151Z" fill="#018ad9" stroke="#018ad9"></path><path d="M298 151L282 181L301 204Z" fill="#000000" stroke="#000000"></path><path d="M803 424L748 359L709 393Z" fill="#000000" stroke="#000000"></path><path d="M245 223L265 309L291 269Z" fill="#0279c6" stroke="#0279c6"></path><path d="M291 269L265 309L338 271Z" fill="#0279c6" stroke="#0279c6"></path><path d="M249 363L335 453L372 414Z" fill="#00aeff" stroke="#00aeff"></path><path d="M381 458L352 493L406 473Z" fill="#018ad9" stroke="#018ad9"></path><path d="M764 164L712 134L733 195Z" fill="#018ad9" stroke="#018ad9"></path><path d="M712 134L711 100L704 132Z" fill="#00aeff" stroke="#00aeff"></path><path d="M784 199L764 199L756 240Z" fill="#019cec" stroke="#019cec"></path><path d="M756 240L764 199L726 210Z" fill="#0168b3" stroke="#0168b3"></path><path d="M748 359L773 250L756 240Z" fill="#002766" stroke="#002766"></path><path d="M308 132L295 119L298 151Z" fill="#000000" stroke="#000000"></path><path d="M333 69L295 119L308 132Z" fill="#00478c" stroke="#00478c"></path><path d="M333 69L308 132L397 92Z" fill="#00478c" stroke="#00478c"></path><path d="M526 0L487 4L545 32Z" fill="#00478c" stroke="#00478c"></path><path d="M545 32L487 4L532 83Z" fill="#001954" stroke="#001954"></path><path d="M558 0L526 0L545 32Z" fill="#0279c6" stroke="#0279c6"></path><path d="M377 0L333 69L397 92Z" fill="#002766" stroke="#002766"></path><path d="M462 540L525 468L447 481Z" fill="#0168b3" stroke="#0168b3"></path><path d="M462 540L521 540L525 468Z" fill="#000000" stroke="#000000"></path><path d="M623 540L665 464L607 454Z" fill="#0168b3" stroke="#0168b3"></path><path d="M462 540L447 481L404 540Z" fill="#000000" stroke="#000000"></path><path d="M775 169L764 164L764 199Z" fill="#018ad9" stroke="#018ad9"></path><path d="M764 199L764 164L733 195Z" fill="#000000" stroke="#000000"></path><path d="M607 42L558 0L545 32Z" fill="#018ad9" stroke="#018ad9"></path><path d="M636 0L558 0L607 42Z" fill="#00aeff" stroke="#00aeff"></path><path d="M215 190L245 223L282 181Z" fill="#018ad9" stroke="#018ad9"></path><path d="M282 181L245 223L301 204Z" fill="#0168b3" stroke="#0168b3"></path><path d="M521 540L549 540L571 495Z" fill="#000000" stroke="#000000"></path><path d="M780 343L789 259L773 250Z" fill="#0168b3" stroke="#0168b3"></path><path d="M802 218L784 199L756 240Z" fill="#0058a0" stroke="#0058a0"></path><path d="M404 540L447 481L406 473Z" fill="#00aeff" stroke="#00aeff"></path><path d="M819 371L780 343L819 374Z" fill="#000000" stroke="#000000"></path><path d="M748 359L780 343L773 250Z" fill="#002766" stroke="#002766"></path><path d="M319 488L352 493L335 453Z" fill="#0168b3" stroke="#0168b3"></path><path d="M335 453L352 493L381 458Z" fill="#0058a0" stroke="#0058a0"></path><path d="M665 464L719 455L670 446Z" fill="#0279c6" stroke="#0279c6"></path><path d="M708 423L803 424L709 393Z" fill="#00aeff" stroke="#00aeff"></path><path d="M682 492L719 455L665 464Z" fill="#0279c6" stroke="#0279c6"></path><path d="M802 218L756 240L773 250Z" fill="#0279c6" stroke="#0279c6"></path><path d="M623 540L607 454L571 495Z" fill="#00478c" stroke="#00478c"></path><path d="M784 199L775 169L764 199Z" fill="#0058a0" stroke="#0058a0"></path><path d="M764 164L766 98L712 134Z" fill="#002766" stroke="#002766"></path><path d="M377 0L324 62L333 69Z" fill="#0058a0" stroke="#0058a0"></path><path d="M333 69L324 62L295 119Z" fill="#00478c" stroke="#00478c"></path><path d="M151 338L249 363L265 309Z" fill="#00478c" stroke="#00478c"></path><path d="M265 309L249 363L383 330Z" fill="#00478c" stroke="#00478c"></path><path d="M438 -10L429 0L487 4Z" fill="#0058a0" stroke="#0058a0"></path><path d="M487 4L429 0L431 99Z" fill="#003779" stroke="#003779"></path><path d="M526 0L438 -10L487 4Z" fill="#0168b3" stroke="#0168b3"></path><path d="M429 0L387 0L397 92Z" fill="#018ad9" stroke="#018ad9"></path><path d="M752 -49L438 -10L526 0Z" fill="#0168b3" stroke="#0168b3"></path><path d="M549 540L623 540L571 495Z" fill="#018ad9" stroke="#018ad9"></path><path d="M276 84L258 128L295 119Z" fill="#002766" stroke="#002766"></path><path d="M295 119L258 128L298 151Z" fill="#018ad9" stroke="#018ad9"></path><path d="M380 540L404 540L406 473Z" fill="#000000" stroke="#000000"></path><path d="M789 259L802 218L773 250Z" fill="#001954" stroke="#001954"></path><path d="M784 199L845 121L775 169Z" fill="#018ad9" stroke="#018ad9"></path><path d="M836 235L802 218L789 259Z" fill="#002766" stroke="#002766"></path><path d="M280 458L319 488L335 453Z" fill="#003779" stroke="#003779"></path><path d="M352 493L380 540L406 473Z" fill="#018ad9" stroke="#018ad9"></path><path d="M638 0L635 73L666 0Z" fill="#0279c6" stroke="#0279c6"></path><path d="M638 0L607 42L635 73Z" fill="#002766" stroke="#002766"></path><path d="M558 0L752 -49L526 0Z" fill="#018ad9" stroke="#018ad9"></path><path d="M699 37L635 73L711 100Z" fill="#000000" stroke="#000000"></path><path d="M636 0L752 -49L558 0Z" fill="#001954" stroke="#001954"></path><path d="M766 98L699 37L711 100Z" fill="#001954" stroke="#001954"></path><path d="M438 -10L387 0L429 0Z" fill="#001954" stroke="#001954"></path><path d="M249 363L280 458L335 453Z" fill="#002766" stroke="#002766"></path><path d="M438 -10L378 0L387 0Z" fill="#001954" stroke="#001954"></path><path d="M387 0L378 0L397 92Z" fill="#0168b3" stroke="#0168b3"></path><path d="M324 62L276 84L295 119Z" fill="#019cec" stroke="#019cec"></path><path d="M258 27L276 84L324 62Z" fill="#00aeff" stroke="#00aeff"></path><path d="M438 -10L377 0L378 0Z" fill="#0168b3" stroke="#0168b3"></path><path d="M378 0L377 0L397 92Z" fill="#00aeff" stroke="#00aeff"></path><path d="M378 560L380 540L287 540Z" fill="#003779" stroke="#003779"></path><path d="M287 540L380 540L352 493Z" fill="#00aeff" stroke="#00aeff"></path><path d="M775 169L766 98L764 164Z" fill="#019cec" stroke="#019cec"></path><path d="M845 121L766 98L775 169Z" fill="#00aeff" stroke="#00aeff"></path><path d="M824 357L819 307L780 343Z" fill="#003779" stroke="#003779"></path><path d="M780 343L819 307L789 259Z" fill="#002766" stroke="#002766"></path><path d="M699 37L666 0L635 73Z" fill="#00478c" stroke="#00478c"></path><path d="M638 0L752 -49L636 0Z" fill="#00aeff" stroke="#00aeff"></path><path d="M678 0L666 0L699 37Z" fill="#0058a0" stroke="#0058a0"></path><path d="M258 128L215 190L282 181Z" fill="#00aeff" stroke="#00aeff"></path><path d="M245 223L174 270L265 309Z" fill="#003779" stroke="#003779"></path><path d="M228 114L215 190L258 128Z" fill="#001954" stroke="#001954"></path><path d="M819 307L825 276L789 259Z" fill="#018ad9" stroke="#018ad9"></path><path d="M802 218L845 121L784 199Z" fill="#0279c6" stroke="#0279c6"></path><path d="M623 540L672 540L682 492Z" fill="#001954" stroke="#001954"></path><path d="M682 492L743 535L719 455Z" fill="#00aeff" stroke="#00aeff"></path><path d="M819 374L780 343L748 359Z" fill="#00478c" stroke="#00478c"></path><path d="M842 275L828 269L825 276Z" fill="#003779" stroke="#003779"></path><path d="M825 276L828 269L789 259Z" fill="#003779" stroke="#003779"></path><path d="M706 0L678 0L699 37Z" fill="#001954" stroke="#001954"></path><path d="M666 0L752 -49L638 0Z" fill="#018ad9" stroke="#018ad9"></path><path d="M287 540L352 493L319 488Z" fill="#00aeff" stroke="#00aeff"></path><path d="M380 540L378 560L404 540Z" fill="#018ad9" stroke="#018ad9"></path><path d="M404 540L378 560L462 540Z" fill="#018ad9" stroke="#018ad9"></path><path d="M462 540L378 560L521 540Z" fill="#0058a0" stroke="#0058a0"></path><path d="M521 540L378 560L549 540Z" fill="#0279c6" stroke="#0279c6"></path><path d="M549 540L378 560L623 540Z" fill="#000000" stroke="#000000"></path><path d="M623 540L378 560L672 540Z" fill="#003779" stroke="#003779"></path><path d="M819 374L748 359L803 424Z" fill="#001954" stroke="#001954"></path><path d="M847 298L842 275L825 276Z" fill="#000000" stroke="#000000"></path><path d="M819 371L824 357L780 343Z" fill="#002766" stroke="#002766"></path><path d="M803 424L708 423L719 455Z" fill="#019cec" stroke="#019cec"></path><path d="M819 371L819 374L824 357Z" fill="#00478c" stroke="#00478c"></path><path d="M846 266L836 235L828 269Z" fill="#00aeff" stroke="#00aeff"></path><path d="M828 269L836 235L789 259Z" fill="#0279c6" stroke="#0279c6"></path><path d="M766 98L721 19L699 37Z" fill="#002766" stroke="#002766"></path><path d="M236 96L258 128L276 84Z" fill="#0058a0" stroke="#0058a0"></path><path d="M236 96L228 114L258 128Z" fill="#002766" stroke="#002766"></path><path d="M438 -10L329 0L377 0Z" fill="#002766" stroke="#002766"></path><path d="M377 0L329 0L324 62Z" fill="#00478c" stroke="#00478c"></path><path d="M258 27L236 96L276 84Z" fill="#019cec" stroke="#019cec"></path><path d="M813 463L803 424L719 455Z" fill="#000000" stroke="#000000"></path><path d="M847 298L825 276L819 307Z" fill="#0058a0" stroke="#0058a0"></path><path d="M137 216L189 214L125 195Z" fill="#00aeff" stroke="#00aeff"></path><path d="M215 190L189 214L245 223Z" fill="#0168b3" stroke="#0168b3"></path><path d="M249 363L222 447L280 458Z" fill="#000000" stroke="#000000"></path><path d="M721 19L710 3L699 37Z" fill="#0058a0" stroke="#0058a0"></path><path d="M710 3L706 0L699 37Z" fill="#00aeff" stroke="#00aeff"></path><path d="M678 0L752 -49L666 0Z" fill="#000000" stroke="#000000"></path><path d="M847 298L846 266L842 275Z" fill="#003779" stroke="#003779"></path><path d="M842 275L846 266L828 269Z" fill="#0058a0" stroke="#0058a0"></path><path d="M824 357L847 298L819 307Z" fill="#0058a0" stroke="#0058a0"></path><path d="M889 389L847 298L824 357Z" fill="#0279c6" stroke="#0279c6"></path><path d="M889 389L824 357L819 374Z" fill="#003779" stroke="#003779"></path><path d="M189 214L174 270L245 223Z" fill="#0168b3" stroke="#0168b3"></path><path d="M176 401L222 447L249 363Z" fill="#00478c" stroke="#00478c"></path><path d="M283 540L287 540L319 488Z" fill="#0058a0" stroke="#0058a0"></path><path d="M721 19L742 12L710 3Z" fill="#0058a0" stroke="#0058a0"></path><path d="M710 3L752 -49L706 0Z" fill="#00478c" stroke="#00478c"></path><path d="M766 98L742 12L721 19Z" fill="#0058a0" stroke="#0058a0"></path><path d="M790 0L742 12L766 98Z" fill="#018ad9" stroke="#018ad9"></path><path d="M189 214L169 266L174 270Z" fill="#0168b3" stroke="#0168b3"></path><path d="M151 338L176 401L249 363Z" fill="#018ad9" stroke="#018ad9"></path><path d="M672 540L743 535L682 492Z" fill="#00aeff" stroke="#00aeff"></path><path d="M329 0L258 27L324 62Z" fill="#002766" stroke="#002766"></path><path d="M236 96L193 93L228 114Z" fill="#00478c" stroke="#00478c"></path><path d="M139 277L160 260L118 254Z" fill="#00aeff" stroke="#00aeff"></path><path d="M189 214L160 260L169 266Z" fill="#002766" stroke="#002766"></path><path d="M283 540L319 488L280 458Z" fill="#0279c6" stroke="#0279c6"></path><path d="M193 93L215 190L228 114Z" fill="#000000" stroke="#000000"></path><path d="M151 338L265 309L174 270Z" fill="#018ad9" stroke="#018ad9"></path><path d="M270 540L283 540L280 458Z" fill="#0279c6" stroke="#0279c6"></path><path d="M287 540L283 540L378 560Z" fill="#001954" stroke="#001954"></path><path d="M743 535L813 463L719 455Z" fill="#001954" stroke="#001954"></path><path d="M803 424L868 421L819 374Z" fill="#00aeff" stroke="#00aeff"></path><path d="M949 167L845 121L836 235Z" fill="#0058a0" stroke="#0058a0"></path><path d="M836 235L845 121L802 218Z" fill="#00aeff" stroke="#00aeff"></path><path d="M949 167L836 235L960 218Z" fill="#019cec" stroke="#019cec"></path><path d="M148 281L174 270L169 266Z" fill="#000000" stroke="#000000"></path><path d="M204 495L270 540L280 458Z" fill="#003779" stroke="#003779"></path><path d="M206 480L280 458L222 447Z" fill="#0058a0" stroke="#0058a0"></path><path d="M283 540L270 540L378 560Z" fill="#0058a0" stroke="#0058a0"></path><path d="M213 39L193 93L236 96Z" fill="#003779" stroke="#003779"></path><path d="M139 277L148 281L160 260Z" fill="#00aeff" stroke="#00aeff"></path><path d="M160 260L148 281L169 266Z" fill="#019cec" stroke="#019cec"></path><path d="M329 0L266 -1L258 27Z" fill="#0279c6" stroke="#0279c6"></path><path d="M258 27L213 39L236 96Z" fill="#018ad9" stroke="#018ad9"></path><path d="M438 -10L266 -1L329 0Z" fill="#019cec" stroke="#019cec"></path><path d="M145 308L151 338L174 270Z" fill="#00aeff" stroke="#00aeff"></path><path d="M148 281L145 308L174 270Z" fill="#002766" stroke="#002766"></path><path d="M672 540L769 540L743 535Z" fill="#00aeff" stroke="#00aeff"></path><path d="M743 535L769 540L813 463Z" fill="#00aeff" stroke="#00aeff"></path><path d="M378 560L769 540L672 540Z" fill="#000000" stroke="#000000"></path><path d="M166 417L222 447L176 401Z" fill="#000000" stroke="#000000"></path><path d="M166 417L206 480L222 447Z" fill="#000000" stroke="#000000"></path><path d="M845 121L841 88L766 98Z" fill="#002766" stroke="#002766"></path><path d="M137 216L160 260L189 214Z" fill="#0058a0" stroke="#0058a0"></path><path d="M148 281L139 277L145 308Z" fill="#003779" stroke="#003779"></path><path d="M148 385L166 417L176 401Z" fill="#0058a0" stroke="#0058a0"></path><path d="M148 385L176 401L151 338Z" fill="#001954" stroke="#001954"></path><path d="M148 385L151 338L103 344Z" fill="#0058a0" stroke="#0058a0"></path><path d="M212 12L213 39L258 27Z" fill="#019cec" stroke="#019cec"></path><path d="M125 195L215 190L140 109Z" fill="#001954" stroke="#001954"></path><path d="M125 195L189 214L215 190Z" fill="#00478c" stroke="#00478c"></path><path d="M147 514L204 495L206 480Z" fill="#003779" stroke="#003779"></path><path d="M206 480L204 495L280 458Z" fill="#000000" stroke="#000000"></path><path d="M103 344L151 338L145 308Z" fill="#019cec" stroke="#019cec"></path><path d="M197 540L202 540L204 495Z" fill="#002766" stroke="#002766"></path><path d="M855 459L803 424L813 463Z" fill="#00478c" stroke="#00478c"></path><path d="M855 459L868 421L803 424Z" fill="#00478c" stroke="#00478c"></path><path d="M847 298L952 318L846 266Z" fill="#018ad9" stroke="#018ad9"></path><path d="M841 88L790 0L766 98Z" fill="#003779" stroke="#003779"></path><path d="M742 12L752 -49L710 3Z" fill="#002766" stroke="#002766"></path><path d="M706 0L752 -49L678 0Z" fill="#0279c6" stroke="#0279c6"></path><path d="M861 463L855 459L813 463Z" fill="#0168b3" stroke="#0168b3"></path><path d="M921 402L889 389L868 421Z" fill="#003779" stroke="#003779"></path><path d="M868 421L889 389L819 374Z" fill="#001954" stroke="#001954"></path><path d="M901 54L862 0L841 88Z" fill="#018ad9" stroke="#018ad9"></path><path d="M140 109L215 190L193 93Z" fill="#003779" stroke="#003779"></path><path d="M137 216L118 254L160 260Z" fill="#00478c" stroke="#00478c"></path><path d="M93 268L103 344L145 308Z" fill="#001954" stroke="#001954"></path><path d="M125 195L118 254L137 216Z" fill="#018ad9" stroke="#018ad9"></path><path d="M266 -1L212 12L258 27Z" fill="#003779" stroke="#003779"></path><path d="M127 53L140 109L193 93Z" fill="#0279c6" stroke="#0279c6"></path><path d="M790 0L752 -49L742 12Z" fill="#0168b3" stroke="#0168b3"></path><path d="M-39 -16L189 0L266 -1Z" fill="#0168b3" stroke="#0168b3"></path><path d="M859 540L861 463L813 463Z" fill="#0279c6" stroke="#0279c6"></path><path d="M855 459L861 463L868 421Z" fill="#003779" stroke="#003779"></path><path d="M859 540L867 465L861 463Z" fill="#002766" stroke="#002766"></path><path d="M861 463L867 465L868 421Z" fill="#000000" stroke="#000000"></path><path d="M127 53L193 93L213 39Z" fill="#0279c6" stroke="#0279c6"></path><path d="M197 540L204 495L175 540Z" fill="#003779" stroke="#003779"></path><path d="M204 495L202 540L270 540Z" fill="#001954" stroke="#001954"></path><path d="M270 540L92 593L378 560Z" fill="#00aeff" stroke="#00aeff"></path><path d="M130 457L206 480L166 417Z" fill="#000000" stroke="#000000"></path><path d="M202 540L164 550L270 540Z" fill="#0168b3" stroke="#0168b3"></path><path d="M93 268L139 277L118 254Z" fill="#001954" stroke="#001954"></path><path d="M93 268L145 308L139 277Z" fill="#0168b3" stroke="#0168b3"></path><path d="M113 422L130 457L166 417Z" fill="#0058a0" stroke="#0058a0"></path><path d="M60 192L118 254L125 195Z" fill="#0058a0" stroke="#0058a0"></path><path d="M60 192L93 268L118 254Z" fill="#0168b3" stroke="#0168b3"></path><path d="M212 12L189 0L213 39Z" fill="#003779" stroke="#003779"></path><path d="M266 -1L189 0L212 12Z" fill="#00aeff" stroke="#00aeff"></path><path d="M-39 -16L266 -1L438 -10Z" fill="#0279c6" stroke="#0279c6"></path><path d="M921 402L932 355L889 389Z" fill="#002766" stroke="#002766"></path><path d="M889 389L932 355L847 298Z" fill="#001954" stroke="#001954"></path><path d="M113 422L166 417L148 385Z" fill="#019cec" stroke="#019cec"></path><path d="M867 465L921 402L868 421Z" fill="#002766" stroke="#002766"></path><path d="M84 391L113 422L148 385Z" fill="#00aeff" stroke="#00aeff"></path><path d="M111 449L113 422L56 426Z" fill="#0168b3" stroke="#0168b3"></path><path d="M147 514L175 540L204 495Z" fill="#0279c6" stroke="#0279c6"></path><path d="M197 540L164 550L202 540Z" fill="#003779" stroke="#003779"></path><path d="M769 540L859 540L813 463Z" fill="#002766" stroke="#002766"></path><path d="M867 465L960 540L921 402Z" fill="#000000" stroke="#000000"></path><path d="M378 560L859 540L769 540Z" fill="#0279c6" stroke="#0279c6"></path><path d="M189 0L163 4L213 39Z" fill="#0168b3" stroke="#0168b3"></path><path d="M140 109L89 152L125 195Z" fill="#001954" stroke="#001954"></path><path d="M790 0L862 0L752 -49Z" fill="#001954" stroke="#001954"></path><path d="M841 88L862 0L790 0Z" fill="#000000" stroke="#000000"></path><path d="M901 54L841 88L845 121Z" fill="#019cec" stroke="#019cec"></path><path d="M960 324L952 318L960 328Z" fill="#000000" stroke="#000000"></path><path d="M932 355L952 318L847 298Z" fill="#001954" stroke="#001954"></path><path d="M96 118L89 152L140 109Z" fill="#0168b3" stroke="#0168b3"></path><path d="M111 478L147 514L130 457Z" fill="#003779" stroke="#003779"></path><path d="M130 457L147 514L206 480Z" fill="#0279c6" stroke="#0279c6"></path><path d="M84 391L148 385L103 344Z" fill="#0058a0" stroke="#0058a0"></path><path d="M113 422L111 449L130 457Z" fill="#001954" stroke="#001954"></path><path d="M918 57L901 54L939 84Z" fill="#001954" stroke="#001954"></path><path d="M163 4L127 53L213 39Z" fill="#0279c6" stroke="#0279c6"></path><path d="M127 53L96 118L140 109Z" fill="#003779" stroke="#003779"></path><path d="M164 550L161 540L117 540Z" fill="#0279c6" stroke="#0279c6"></path><path d="M147 514L161 540L175 540Z" fill="#019cec" stroke="#019cec"></path><path d="M175 540L164 550L197 540Z" fill="#002766" stroke="#002766"></path><path d="M960 218L836 235L846 266Z" fill="#002766" stroke="#002766"></path><path d="M61 276L103 344L93 268Z" fill="#001954" stroke="#001954"></path><path d="M0 319L84 391L103 344Z" fill="#000000" stroke="#000000"></path><path d="M960 324L960 307L952 318Z" fill="#0058a0" stroke="#0058a0"></path><path d="M952 318L960 307L846 266Z" fill="#018ad9" stroke="#018ad9"></path><path d="M117 540L161 540L147 514Z" fill="#0168b3" stroke="#0168b3"></path><path d="M161 540L164 550L175 540Z" fill="#000000" stroke="#000000"></path><path d="M960 307L960 218L846 266Z" fill="#00aeff" stroke="#00aeff"></path><path d="M960 328L952 318L932 355Z" fill="#002766" stroke="#002766"></path><path d="M960 328L932 355L960 366Z" fill="#002766" stroke="#002766"></path><path d="M960 366L932 355L960 381Z" fill="#003779" stroke="#003779"></path><path d="M60 192L61 276L93 268Z" fill="#003779" stroke="#003779"></path><path d="M60 192L125 195L89 152Z" fill="#0058a0" stroke="#0058a0"></path><path d="M95 469L111 478L111 449Z" fill="#018ad9" stroke="#018ad9"></path><path d="M111 449L111 478L130 457Z" fill="#001954" stroke="#001954"></path><path d="M939 84L901 54L845 121Z" fill="#002766" stroke="#002766"></path><path d="M901 54L906 0L862 0Z" fill="#0279c6" stroke="#0279c6"></path><path d="M960 381L932 355L921 402Z" fill="#0168b3" stroke="#0168b3"></path><path d="M960 542L882 540L859 540Z" fill="#000000" stroke="#000000"></path><path d="M859 540L882 540L867 465Z" fill="#00478c" stroke="#00478c"></path><path d="M960 218L960 165L949 167Z" fill="#000000" stroke="#000000"></path><path d="M960 117L939 84L845 121Z" fill="#001954" stroke="#001954"></path><path d="M982 397L960 381L921 402Z" fill="#018ad9" stroke="#018ad9"></path><path d="M960 542L886 540L882 540Z" fill="#003779" stroke="#003779"></path><path d="M882 540L886 540L867 465Z" fill="#001954" stroke="#001954"></path><path d="M76 107L89 152L96 118Z" fill="#00478c" stroke="#00478c"></path><path d="M40 122L60 192L89 152Z" fill="#0168b3" stroke="#0168b3"></path><path d="M960 117L845 121L949 167Z" fill="#00478c" stroke="#00478c"></path><path d="M56 426L95 469L111 449Z" fill="#00aeff" stroke="#00aeff"></path><path d="M111 478L101 497L147 514Z" fill="#00478c" stroke="#00478c"></path><path d="M56 426L113 422L84 391Z" fill="#0168b3" stroke="#0168b3"></path><path d="M960 307L980 286L960 218Z" fill="#002766" stroke="#002766"></path><path d="M960 218L997 137L960 165Z" fill="#00aeff" stroke="#00aeff"></path><path d="M960 324L980 286L960 307Z" fill="#00478c" stroke="#00478c"></path><path d="M960 328L980 286L960 324Z" fill="#00478c" stroke="#00478c"></path><path d="M982 397L980 286L960 328Z" fill="#000000" stroke="#000000"></path><path d="M982 397L960 328L960 366Z" fill="#019cec" stroke="#019cec"></path><path d="M960 542L894 540L886 540Z" fill="#001954" stroke="#001954"></path><path d="M886 540L894 540L867 465Z" fill="#002766" stroke="#002766"></path><path d="M40 122L76 107L0 63Z" fill="#000000" stroke="#000000"></path><path d="M127 53L76 107L96 118Z" fill="#0168b3" stroke="#0168b3"></path><path d="M997 137L960 117L960 165Z" fill="#003779" stroke="#003779"></path><path d="M960 165L960 117L949 167Z" fill="#000000" stroke="#000000"></path><path d="M95 469L101 497L111 478Z" fill="#001954" stroke="#001954"></path><path d="M960 70L918 57L939 84Z" fill="#003779" stroke="#003779"></path><path d="M960 0L906 0L918 57Z" fill="#00aeff" stroke="#00aeff"></path><path d="M918 57L906 0L901 54Z" fill="#002766" stroke="#002766"></path><path d="M862 0L906 0L752 -49Z" fill="#018ad9" stroke="#018ad9"></path><path d="M101 497L117 540L147 514Z" fill="#003779" stroke="#003779"></path><path d="M95 469L71 474L101 497Z" fill="#00aeff" stroke="#00aeff"></path><path d="M0 540L92 593L117 540Z" fill="#0168b3" stroke="#0168b3"></path><path d="M10 398L56 426L84 391Z" fill="#0168b3" stroke="#0168b3"></path><path d="M0 319L103 344L61 276Z" fill="#0058a0" stroke="#0058a0"></path><path d="M960 540L982 397L921 402Z" fill="#0168b3" stroke="#0168b3"></path><path d="M960 381L982 397L960 366Z" fill="#0168b3" stroke="#0168b3"></path><path d="M997 137L960 77L960 117Z" fill="#00aeff" stroke="#00aeff"></path><path d="M960 117L960 77L939 84Z" fill="#019cec" stroke="#019cec"></path><path d="M56 426L71 474L95 469Z" fill="#0168b3" stroke="#0168b3"></path><path d="M997 137L960 70L960 77Z" fill="#018ad9" stroke="#018ad9"></path><path d="M960 77L960 70L939 84Z" fill="#001954" stroke="#001954"></path><path d="M73 0L76 107L127 53Z" fill="#000000" stroke="#000000"></path><path d="M76 107L40 122L89 152Z" fill="#0058a0" stroke="#0058a0"></path><path d="M60 192L0 223L61 276Z" fill="#00aeff" stroke="#00aeff"></path><path d="M980 286L997 137L960 218Z" fill="#018ad9" stroke="#018ad9"></path><path d="M982 397L997 137L980 286Z" fill="#0058a0" stroke="#0058a0"></path><path d="M0 218L0 223L60 192Z" fill="#018ad9" stroke="#018ad9"></path><path d="M0 223L0 316L61 276Z" fill="#00aeff" stroke="#00aeff"></path><path d="M56 426L0 477L71 474Z" fill="#00478c" stroke="#00478c"></path><path d="M0 316L0 319L61 276Z" fill="#00478c" stroke="#00478c"></path><path d="M0 216L0 218L60 192Z" fill="#00aeff" stroke="#00aeff"></path><path d="M163 4L73 0L127 53Z" fill="#00aeff" stroke="#00aeff"></path><path d="M40 122L0 216L60 192Z" fill="#001954" stroke="#001954"></path><path d="M189 0L73 0L163 4Z" fill="#003779" stroke="#003779"></path><path d="M-39 -16L73 0L189 0Z" fill="#0168b3" stroke="#0168b3"></path><path d="M0 115L0 216L40 122Z" fill="#018ad9" stroke="#018ad9"></path><path d="M0 319L10 398L84 391Z" fill="#0168b3" stroke="#0168b3"></path><path d="M0 540L117 540L101 497Z" fill="#019cec" stroke="#019cec"></path><path d="M906 0L960 0L752 -49Z" fill="#003779" stroke="#003779"></path><path d="M960 70L960 0L918 57Z" fill="#003779" stroke="#003779"></path><path d="M997 137L960 0L960 70Z" fill="#000000" stroke="#000000"></path><path d="M960 542L960 540L894 540Z" fill="#00aeff" stroke="#00aeff"></path><path d="M894 540L960 540L867 465Z" fill="#00aeff" stroke="#00aeff"></path><path d="M378 560L960 542L859 540Z" fill="#002766" stroke="#002766"></path><path d="M960 540L960 542L982 397Z" fill="#00478c" stroke="#00478c"></path><path d="M0 319L0 401L10 398Z" fill="#001954" stroke="#001954"></path><path d="M10 398L-1 426L56 426Z" fill="#019cec" stroke="#019cec"></path><path d="M0 540L101 497L71 474Z" fill="#002766" stroke="#002766"></path><path d="M117 540L92 593L164 550Z" fill="#00478c" stroke="#00478c"></path><path d="M164 550L92 593L270 540Z" fill="#002766" stroke="#002766"></path><path d="M378 560L92 593L960 542Z" fill="#0168b3" stroke="#0168b3"></path><path d="M-39 -16L50 0L73 0Z" fill="#001954" stroke="#001954"></path><path d="M73 0L50 0L76 107Z" fill="#0168b3" stroke="#0168b3"></path><path d="M0 63L0 115L40 122Z" fill="#00aeff" stroke="#00aeff"></path><path d="M-36 74L-1 426L0 401Z" fill="#001954" stroke="#001954"></path><path d="M0 401L-1 426L10 398Z" fill="#0168b3" stroke="#0168b3"></path><path d="M-36 74L0 401L0 319Z" fill="#019cec" stroke="#019cec"></path><path d="M-36 74L0 319L0 316Z" fill="#0058a0" stroke="#0058a0"></path><path d="M-36 74L0 316L0 223Z" fill="#0168b3" stroke="#0168b3"></path><path d="M-36 74L0 223L0 218Z" fill="#001954" stroke="#001954"></path><path d="M-36 74L0 218L0 216Z" fill="#00478c" stroke="#00478c"></path><path d="M-1 426L0 433L56 426Z" fill="#003779" stroke="#003779"></path><path d="M0 63L-12 108L0 115Z" fill="#0058a0" stroke="#0058a0"></path><path d="M0 115L-12 108L0 216Z" fill="#018ad9" stroke="#018ad9"></path><path d="M0 58L0 63L76 107Z" fill="#00aeff" stroke="#00aeff"></path><path d="M-1 426L0 477L0 433Z" fill="#001954" stroke="#001954"></path><path d="M0 433L0 477L56 426Z" fill="#00478c" stroke="#00478c"></path><path d="M0 540L0 477L-36 74Z" fill="#0279c6" stroke="#0279c6"></path><path d="M50 0L0 58L76 107Z" fill="#00478c" stroke="#00478c"></path><path d="M0 63L-36 74L-12 108Z" fill="#000000" stroke="#000000"></path><path d="M-39 -16L0 0L50 0Z" fill="#0168b3" stroke="#0168b3"></path><path d="M50 0L0 0L0 58Z" fill="#000000" stroke="#000000"></path><path d="M0 58L-36 74L0 63Z" fill="#018ad9" stroke="#018ad9"></path><path d="M-36 74L0 477L-1 426Z" fill="#0168b3" stroke="#0168b3"></path><path d="M0 477L0 540L71 474Z" fill="#0279c6" stroke="#0279c6"></path><path d="M-31 0L-36 74L0 58Z" fill="#001954" stroke="#001954"></path><path d="M-12 108L-36 74L0 216Z" fill="#0279c6" stroke="#0279c6"></path><path d="M-39 -16L-31 0L0 0Z" fill="#019cec" stroke="#019cec"></path><path d="M0 0L-31 0L0 58Z" fill="#019cec" stroke="#019cec"></path><path d="M752 -49L-39 -16L438 -10Z" fill="#0168b3" stroke="#0168b3"></path><path d="M-31 0L-39 -16L-36 74Z" fill="#0279c6" stroke="#0279c6"></path></g></svg>